{
  "title": "Mortdecai.2015.720p.WEB-DL.XviD.AC3-RARBG",
  "uid": 11820686,
  "size": 3354020479,
  "categoryP": "video",
  "categoryS": "hd___movies",
  "magnet": "?xt=urn:btih:2c8a4646e5137fdd4a05d981087cb13d915c39b4&amp;dn=Mortdecai.2015.720p.WEB-DL.XviD.AC3-RARBG&amp;tr=udp%3A%2F%2Ftracker.openbittorrent.com%3A80&amp;tr=udp%3A%2F%2Fopen.demonii.com%3A1337&amp;tr=udp%3A%2F%2Ftracker.coppersurfer.tk%3A6969&amp;tr=udp%3A%2F%2Fexodus.desync.com%3A6969",
  "seeders": 52,
  "leechers": 15,
  "uploader": "makintos13",
  "files": 4,
  "time": 1429243969,
  "description": "SCREEN:\n  &lt;a href=&quot;\nhttp://imgmak.com/zB&quot; rel=&quot;nofollow&quot; target=&quot;_NEW&quot;&gt;\nhttp://imgmak.com/zB&lt;/a&gt;\n  &lt;a href=&quot;\nhttp://imgmak.com/zI&quot; rel=&quot;nofollow&quot; target=&quot;_NEW&quot;&gt;\nhttp://imgmak.com/zI&lt;/a&gt;\n  &lt;a href=&quot;\nhttp://imgmak.com/zq&quot; rel=&quot;nofollow&quot; target=&quot;_NEW&quot;&gt;\nhttp://imgmak.com/zq&lt;/a&gt;\n\nFormat                                   : AVI\nFormat/Info                              : Audio Video Interleave\nFormat profile                           : OpenDML\nFile size                                : 3.12 GiB\nDuration                                 : 1h 46mn\nOverall bit rate                         : 4 188 Kbps\n\n\nVideo\nID                                       : 0\nFormat                                   : MPEG-4 Visual\nFormat profile                           : Simple@L5\nFormat settings, BVOP                    : No\nFormat settings, QPel                    : No\nFormat settings, GMC                     : No warppoints\nFormat settings, Matrix                  : Default (H.263)\nCodec ID                                 : XVID\nCodec ID/Hint                            : XviD\nDuration                                 : 1h 46mn\nBit rate                                 : 3 794 Kbps\nWidth                                    : 1 280 pixels\nHeight                                   : 532 pixels\nDisplay aspect ratio                     : 2.40:1\nFrame rate                               : 23.976 fps\nColor space                              : YUV\nChroma subsampling                       : 4:2:0\nBit depth                                : 8 bits\nScan type                                : Progressive\nCompression mode                         : Lossy\nBits/(Pixel*Frame)                       : 0.232\nStream size                              : 2.83 GiB (91%)\nWriting library                          : Lavc56.13.100\n\nAudio\nID                                       : 1\nFormat                                   : AC-3\nFormat/Info                              : Audio Coding 3\nMode extension                           : CM (complete main)\nFormat settings, Endianness              : Big\nCodec ID                                 : 2000\nDuration                                 : 1h 46mn\nBit rate mode                            : Constant\nBit rate                                 : 384 Kbps\nChannel(s)                               : 6 channels\nChannel positions                        : Front: L C R, Side: L R, LFE\nSampling rate                            : 48.0 KHz\nBit depth                                : 16 bits\nCompression mode                         : Lossy\nStream size                              : 293 MiB (9%)\nAlignment                                : Aligned on interleaves\nInterleave, duration                     : 42 ms (1.00 video frame)\nInterleave, preload duration             : 512 ms",
  "parsed": {
    "xt": "urn:btih:2c8a4646e5137fdd4a05d981087cb13d915c39b4",
    "dn": "Mortdecai.2015.720p.WEB-DL.XviD.AC3-RARBG",
    "tr": [
      "udp://exodus.desync.com:6969",
      "udp://open.demonii.com:1337",
      "udp://tracker.coppersurfer.tk:6969",
      "udp://tracker.openbittorrent.com:80"
    ],
    "infoHash": "2c8a4646e5137fdd4a05d981087cb13d915c39b4",
    "infoHashBuffer": {
      "type": "Buffer",
      "data": [
        44,
        138,
        70,
        70,
        229,
        19,
        127,
        221,
        74,
        5,
        217,
        129,
        8,
        124,
        177,
        61,
        145,
        92,
        57,
        180
      ]
    },
    "name": "Mortdecai.2015.720p.WEB-DL.XviD.AC3-RARBG",
    "announce": [
      "udp://exodus.desync.com:6969",
      "udp://open.demonii.com:1337",
      "udp://tracker.coppersurfer.tk:6969",
      "udp://tracker.openbittorrent.com:80"
    ],
    "urlList": []
  },
  "previous": 67,
  "peers": 3,
  "last_updated": "2016-12-24T20:56:05.969Z"
}